/* XPM */
static char *grass[] = {
/* columns rows colors chars-per-pixel */
"64 64 39 1 ",
"  c #168E01",
". c #1A8F03",
"X c #1D9303",
"o c #1E9B03",
"O c #218F04",
"+ c #249505",
"@ c #2A9606",
"# c #259A05",
"$ c #2C9B06",
"% c #2D9708",
"& c #2E9B08",
"* c #309707",
"= c #329C07",
"- c #389F07",
"; c #309708",
": c #339D09",
"> c #3A9E0A",
", c #1DA003",
"< c #26A104",
"1 c #2CA206",
"2 c #2DA806",
"3 c #2EA208",
"4 c #32A207",
"5 c #39A507",
"6 c #33A907",
"7 c #34A209",
"8 c #3BA30A",
"9 c #34AA08",
"0 c #3CAA0A",
"q c #2FB106",
"w c #3DB10B",
"e c #409E0B",
"r c #43A40C",
"t c #48A50E",
"y c #43AB0C",
"u c #49AB0D",
"i c #43B20B",
"p c #48B50C",
"a c #4BB90E",
/* pixels */
"r;=:8.++%:=8%;;8=91@4+;@;r0=:325y0$&00$;&47:#y1@4@44#:-%#@%;@&=t",
"t;+=8XXO%:;>%>:$494#$&%+;:88=$200io%4548=677+i$@$$@=#8>=@=$+@@=>",
"e>++=X++%%%;%783:5=$%$&%+@85;$490p,+4747#0@y+i+@+7@71yr=$8%+:@>e",
"e>%@%XX#%@>;@&7$45&%%+5+%@79$449<i<+1157#y@8+9+@$1@94yr@::&.8%>>",
">>;@=+X@+=>;@7:+:5=>% 4%%$:7==@7#91+##77#y17@9+==#$44u7+75$+=>;8",
">%;=$@#@X=>;+r>1&8=8:+#=@88=4@$7449+3o=810$4&;+r=+$&7y8$>7&&=>=:",
";+%*+=$%+@;r:r>&78%>82%4=:r:$1=@4$1$$o$4991&&7$50++77t04::&&=:>=",
":@%%%@;$$+;>e8=&88=r53>5:=t=@@4#7$44##+111=$+047r#X47u7=>8&&4;>=",
"$++#>+;+rX;ee>=*7888r6880&;:$$;#=#4&=3#&##73@4y1>@#$7ro@$7=&74;>",
";+$@%=;+>+>>>e@=0=7y446084&=&4$%$#41>51&#$:143017+$7::X++4:=50+8",
"8@&&+=$+*>*>;8%=44yr4$70744=14=++==17r3$4$=$5;014 #78@XX+47r70#=",
"0@&=+:==%:+;:%>:=4950<00&47=4=-@+==$88>@:$@65897+##77@%o*89r141$",
"438=$$>$=&&;;$:41&2y0<3w@<1;+$r@+=&3788%7;#57:67$@#4=7&#;865$1&1",
"+;83=#>$&@&$&==1441770+01&;4+%t-+$5&&:==::@:=8=74$4&4911@@1041&7",
"#==4&&4&71;4@+8#4&=49i=838:4X$t:@+7$4>$%::%=;:74=14&8&4$#$1461$7",
"10$4#=$11&=1@$==$$=$0y87$8>1X+r>$+:74&$%>>$=7=7;>&11>349+<17941$",
"#044o<+&#$$&#=1y+#$=0u70$=r8++>r#@%74:&:88=&7448=54$=4:0+$$794$1",
"#w5+#o$4#=+=8@1y#<#=8y40177r3#=r#1+%&;=:>%8=41&8=06$$ii00#<6091+",
"$q9@+#w1$$@48;$y$+#@=040&y$==#=r$=&+@;:;r%44=91r8y2115p49<996941",
"&<6#@46$&&&7>>+i<+@@46&4=08=&$=>#=8X=%%:>@07&8487y<9$yp0949i4#9$",
"03217061$+$y@u+w#%+:-8&444u4$$$;#>:+$%$=>@49&748yr3317pi947w6+71",
"07<17y1#$==r@t#yX$$=8>1&&:8=++@@#:4$&%$4>+16=:&4u=4#27ii91406#1=",
"87==r74+<%@u=830+@:=e=&#$4:=@@@#$>>#&=@94X13:$+<0&=$#$wyw11691&4",
"754=$8=+#&$y8=&8@=-$%::+@=&4;$+=787o@7+34$$&4#@#6#-=#$=073#41&4=",
"407&@@=+++#yr=@8$45=@#*+++#58=.&:y7o#8#&74+;75&11+$@@1@56<X6$=11",
"&40&=+O=.X<yy%+==78:;++=.+28r=++>=4##43&$14:89791+@@=&101,o1&71$",
"@407:++*XX4ur&+$=888;@O*.X9r8%@+>X@##$&=11:87002&##@7#=3#o #&56=",
"4498+%++%X4t704&784>%*+.;X0tr::+4@&#X$4;16&780w941&1=@$3#1o#1494",
"#=44X=;+&+=t=04=48::+;*+%#8t:==+;:&#o#7:@6174yw24757#=44#1#@=1#0",
"1:;=#&;$X$4t$37778::$@;+.18r$4$$&:$&X$=:@6&=7790#=80$40+&<@&19+4",
"19@==#:8+%8r$$7805::$o=%.4rr=8$=&+8&$$78$4@=8%40$;>y447&&<%:4w#1",
"14$+&&>8=+>8$&77077%&#%=X&t8>4=;%X4&$%88+1#@7@$r1%;877&4##47=943",
"17o$=+&47@84447&81=#7$@&#&t884;>:+$4#=88&1+#:=+84$+r07#1+#$8#799",
"1$ #+$@1017&517&r&3$=84X$7r178%8:2=&$%8:@$+#;@@:>%Xrr;###+>=1105",
":#oO+;&==&=446448$$1#85+:88&78%r82>74@r;%@4+&$#:e%+6>%@#9<444<98",
"8+$#+>r=%7$4;4477#1$#88@&87&7>7rr68y7@$=$#1$@=X:-$@144%40#$17&67",
"&+$:=>>$%r;@=:7:8@$4#:8>&94&9=5y746u8$@$$@#1%%+$>%=14$&96#$<4$46",
"+%+$8=;+$r>@=>=8::&&$:=070<4448t0&4i7@$%%;$#@++@>=414$&74#2$4#&4",
"+@:&r4&X%t=@@8+0;885==8=58<717787$;04;+%:;@##+%$*:4$$&$87=412@&1",
"+$;3e71X+r8@+-=1==08*==$48&177487&@y@:@$=-&#@*:=%;&&$=#7::&<#4@>",
";;73>8r++7t+#%&$$7y844@%@8$$7:#=u$+8+*-;48@$#7>;;8$%&%$78=$1#+=>",
";;4&878$@=y@$+=&=40r=:$&$8%4:;+&t>+::*->48$:====88++@=$>r:&$#+%8",
";;8@u%:=@=y=1$@=7=88@==&$:3:;$X&t:@+7:=r07:==#&$>8.++%:7r%=$&%$4",
";>8%0881@:t%$r.@1y8==$=$3:&:>1X#r>##-=-=884%&$=@:rX++%;;r;;$#%>;",
":>>:3y:1$=8+%8#+4y8%%&8$$7$=88X#>r@+#-$#40&$3=&@@7XX@@$;8;54+@=>",
"8;>:#:$@$@%#$:#+788%@75++3$:8r1@=r##+$=@19&$38$:@:+.@%&7>4&4++%r",
"t$>=@$#@%%%$+%##47:$+:8 +$@y;:=$=r$#++>$%3=$&8=>%7%.$@=58;&=@@@r",
"r2;$+=$$>=:$@#+#444$X48.+#%0851$=r+%7X>y4X7+188;::%+%+484&&>;%;>",
"r4>+o+0>=7$+#@++0&9$X@4.+$%7u7$&:8X$44:>0@+@$>r;>:&@;#&584&5;%%7",
"e&>o+#077=##$@@+pX33=+%+X+&78%#$@;#+$y78t=X$@:>>%:@:=@$=r5%47%:%",
"=@>1X1066@@$#%=+a$317$&#X&$7:++4#==&@7i578+++&>8@;&:%&@;r7:%:&8;",
"@@:4X&101$&2@+=@7&6<:%1#X=#:7X#7+$4=#=7877>+#@>;;@@:=4+@8#::=88:",
"+=746#401@#$$@%*$=4#&$&#+7331#ww#<<=3%=777>@@$;;;@%==4@+#&@8@578",
"$&046<996+@&==@:4771&+<X#802<#w9#2#7&:&4:::7#$==4%&:%=$;+;;:&014",
"18p0917y1+=7:=&447&$&++X+&y33ow4&1$4#:;=&:%8117=0+%7;@@8@+:=%821",
"<4iy247u=$>44744@8%:+&+X#%7<w<03$@4&$@;84=88704=y+=4=+%r>O=>=7#<",
"<4y02=88>:=4&44$@8%%@:@XX4=1&404#@8#%+:8784r&r&=838;$X@t=$+8@7&o",
",#04373::8&#+1$#$>+++>+++&;%#=7$%%+8@%%8577:84;#:4881X@r>$#;57&<",
"o#=3&7#:=:&$#1&1@:OX&e@%+=$$X;8@8%.4=$@>5747=7=#84=88#+-r++$89:@",
"#<$@&4#7==&&@#&14;+X8:%7%#%@#$7$8>+#:@;857&7=1$$947581$:8$$+;&==",
"&4$&&1#%=$=:@@&441+.8$@>8;=@+=8@r:2%4$;875$$:##+730===$=r=&@#&:8",
"4:0&%1#$=@=:=$#w$2#X8$o37>4@#7r%r86>::=8=4#&$3##7=9844&=r#&>+%:>",
"8:5&7$#&%$=::@@p+11&74X$r5==@4878825r8@;:#@%19$<=47i==$:=+;=$$;r",
"8>47:+@#;$:8:;&a$11$$+X+8t&3@717t=1408@%#&7#&0$1$778#==@%o*=@=%r"
};
