/* XPM */
static char *robot[] = {
/* columns rows colors chars-per-pixel */
"64 64 16 1 ",
"  c #340B19",
". c #241D1A",
"X c #0C0625",
"o c #3B302E",
"O c #491329",
"+ c #572424",
"@ c #612A3B",
"# c #006C5E",
"$ c #5A4D4C",
"% c #786B6B",
"& c #AA281D",
"* c #862D29",
"= c #008F6A",
"- c #F9A832",
"; c #7DD8CB",
": c None",
/* pixels */
":::::::::::::::::::::::::::::: :::::::::::::::::::::::::::::::::",
"::::::::::::::::::::::::::::::  ::::::::::::::::::::::::::::::::",
":::::::::::::::::::::::::::::: & :::::::::::::::::::::::::::::::",
":::::::::::::::::::::::::::::: &* ::::::::::::::::::::::::::::::",
"::::::::::::::::::::::::::::: &&* ::::::::::::::::::::::::::::::",
"::::::::::::::::::::::::::::: &*** :::::::::::::::::::::::::::::",
":::::::::::::::::::::::::::: &&*** :::::::::::::::::::::::::::::",
":::::::::::::::::::::::::   &&***** ::::::::::::::::::::::::::::",
"::::::::::::::::::::::   &&&&******* :::::::::::::::::::::::::::",
"::::::::::::::::::::: &&&&*****X*****  :::::::::::::::::::::::::",
":::::::::::::::::::: &&*****XXXXXX***** ::::::::::::::::::::::::",
"::::::::::::::::::: &&**XXXXXXXXXXXXX*** :::::::::::::::::::::::",
"::::::::::::::::::: &**XXXX;XXXXXXXXXX*** ::::::::::::::::::::::",
":::::::::::::::::: &&*XXXX;;;XXXXXX;XXX** ::::::::::::::::::::::",
":::::::::::::::::: &&*XXXX;;;XXXXX;;;XX*** :::::::::::::::::::::",
":::::::::::::::::: &**XXXX;;;XXXXX;;;XXX** :::::::::::::::::::::",
"::::::::::      :: &***XXX;;;XXXXX;;;XXX** :::::::::::::::::::::",
":::::::::: &&&&& :: ***XXXX;XXXXXX;;;XXX** :::::::::::::::::::::",
":::::::::: &&&&&& :: ***XXXXXXXXXXX;XXX*** :::::::::::::::::::::",
":::::::::: &&&&&&& :: ***XXXXXXXXXXXXXX** :::::     ::::::::::::",
":::::::::: &&&&&&** ::   *****XXXXXXX**** :::: &&&& ::::::::::::",
":::::::::: &&&&**** :      ooo*********  :::: &&&&* ::::::::::::",
":::::::::: &&&*****  &&&&&$$$ooooo     ::::: &&&*** ::::::::::::",
"::::::::::: &&*****O&&&&&&&$$$$$$$**   :::: &&***** ::::::::::::",
"::::::::::: &*****O&&&&&&&&&&$$$&&*****  : &&****** ::::::::::::",
"::::::::::: &****O&&&&&*&&&&&&&&&********  &******* ::::::::::::",
"::::::::::: *****O&&&&&***&&&&&********** &******** ::::::::::::",
"::::::::::: *++*O&&&&&*******************O******** :::::::::::::",
"::::::...::: $+*O&&&&&*********+#+#+*****O**+++*** :::::::::::::",
":::::.%%%.:: ++*O&&&&&*********+###+*****O**+$+*** :::::::::::::",
"::::..%%%%.:: +*O&&&&&*********+=-=+******O*+++*** :::::::::::::",
":::.$$%%%%.::.$+O&&&&&*********+###+******O***+*** :::::::::::::",
"::.$..$%%.::.$$. &&&&***********+#+********O**+++ ::::::::::::::",
":.$...$.$.::.%%. &&&&************+*********  +$$.:::::::...:::::",
":.$..$..$.::.$.: &&&&********************* ::.$$.::::::.%%%.::::",
"::.:.$..%.:.$$.:: &&&******************** :::.%%.:::::.%%%%..:::",
"::::.$..$$..%%.::: &&******************* :::::.$.:::::.%%%$$$.::",
":::::.:.$$..$.::::: @****************** ::::::.$.:::::.$%$...$.:",
":::::::.%%.$$.:::: &&@O**************O :::::::.%%.:::.%$.$.:.$$.",
"::::::::.$.%%.:::: &&**@OO********OOO** ::::::.$$.::.$%.:.$.:.$.",
"::::::::.$.$.::::: &&**&**O@OOOOOO***** ::::::.$$.:.%$.::.$.:.$.",
"::::::::.$%$.:::: &&&**&***&*********** ::::::.%%.:.%.:::.$.:..:",
":::::::::.%$.:::: &&&**&***&**********+ ::::::.$$$.$$.:::..:::::",
"::::::::::..::::: &&***&***&*********** :::::::.$%.%.::::.::::::",
"::::::::::::::::: &&***&***&********+*+* ::::::.%$$%.:::::::::::",
"::::::::::::::::: &&**&&***&***********+ ::::::.$$$.::::::::::::",
"::::::::::::::::: &&**&&***&****+***+*** :::::::.$.:::::::::::::",
"::::::::::::::::: &&**&&***&***********+ :::::::..::::::::::::::",
":::::::::::::::: &&&**&****&****+***+*** :::::::::::::::::::::::",
":::::::::::::::: &&***&****&*********+*+* ::::::::::::::::::::::",
":::::::::::::::: &&***&***&&****+***+***+ ::::::::::::::::::::::",
"::::::::::::::: &&&***&***&&*********+*** ::::::::::::::::::::::",
"::::::::::::::: &&&**&&***&&****+*******+* :::::::::::::::::::::",
"::::::::::::::: &&***&&***&&*********+***+ :::::::::::::::::::::",
":::::::::::::: &&&***&&***&&****+*****+***+ ::::::::::::::::::::",
":::::::::::::: &&&***&&***&**********+*****+ :::::::::::::::::::",
":::::::::::::: &&&***&&***&*****+*****+***+* :::::::::::::::::::",
":::::::::::::: &&&***&****&******+***+*****+* ::::::::::::::::::",
":::::::::::::: &&&***&****&*****+*****+*****+ ::::::::::::::::::",
"::::::::::::::: &&***&****&******+***+*+***+* ::::::::::::::::::",
"::::::::::::::::  ***&****&*****+*****+*+*** :::::::::::::::::::",
"::::::::::::::::::   &****&******+***+*+*   ::::::::::::::::::::",
":::::::::::::::::::::     &*****+***     :::::::::::::::::::::::",
"::::::::::::::::::::::::::          ::::::::::::::::::::::::::::"
};
