/* XPM */
static char *robot_grass[] = {
/* columns rows colors chars-per-pixel */
"64 64 112 2 ",
"   c #340B19",
".  c #241D1A",
"X  c #241F1A",
"o  c #322C18",
"O  c #253719",
"+  c #253819",
"@  c #333018",
"#  c #343118",
"$  c #343518",
"%  c #0C0625",
"&  c #3B302E",
"*  c #491329",
"=  c #572424",
"-  c #553A22",
";  c #553D23",
":  c #612A3B",
">  c #285717",
",  c #235D14",
"<  c #245E15",
"1  c #1A7C0A",
"2  c #29760F",
"3  c #246114",
"4  c #276615",
"5  c #296215",
"6  c #256A14",
"7  c #257C10",
"8  c #297C10",
"9  c #337711",
"0  c #377912",
"q  c #317C11",
"w  c #337C11",
"e  c #387D12",
"r  c #497E19",
"t  c #60791B",
"y  c #637B1C",
"u  c #657C1C",
"i  c #797513",
"p  c #4B723C",
"a  c #50713F",
"s  c #006C5E",
"d  c #5A4D4C",
"f  c #575749",
"g  c #766E69",
"h  c #786B6B",
"j  c #747167",
"k  c #AA281D",
"l  c #A43C1C",
"z  c #862D29",
"x  c #813E27",
"c  c #813F27",
"v  c #A4411C",
"b  c #824027",
"n  c #824127",
"m  c #824727",
"M  c #168E01",
"N  c #1A8F03",
"B  c #1D9303",
"V  c #1E9B03",
"C  c #218F04",
"Z  c #20870B",
"A  c #298A0B",
"S  c #2C8E0D",
"D  c #308F0C",
"F  c #249505",
"G  c #2A9606",
"H  c #259A05",
"J  c #2C9B06",
"K  c #2D9708",
"L  c #2E9B08",
"P  c #309707",
"I  c #329C07",
"U  c #389F07",
"Y  c #309708",
"T  c #339D09",
"R  c #319B0C",
"E  c #3A9E0A",
"W  c #3A9E0C",
"Q  c #398212",
"!  c #3D8812",
"~  c #1DA003",
"^  c #26A104",
"/  c #2CA206",
"(  c #2DA806",
")  c #2EA208",
"_  c #32A207",
"`  c #39A507",
"'  c #33A807",
"]  c #33A907",
"[  c #32A209",
"{  c #34A209",
"}  c #3BA30A",
"|  c #34AA08",
" . c #3CAA0A",
".. c #2FB106",
"X. c #3DB10B",
"o. c #399121",
"O. c #3C9720",
"+. c #409E0B",
"@. c #63841B",
"#. c #68801C",
"$. c #7D8414",
"%. c #43A40C",
"&. c #48A50E",
"*. c #43AB0C",
"=. c #49AB0D",
"-. c #43B20B",
";. c #48B50C",
":. c #4BB90E",
">. c #448330",
",. c #008F6A",
"<. c #F9A832",
"1. c #7DD8CB",
/* pixels */
"%.Y I T } N F F K T I } K Y Y } I ' / G _ F Y G Y %. .I T ) ( ` *. .J L  . .J K L _ { T H *./ G _ G _ _ H T U K H G K Y G L I &.",
"&.Y F I } B B C K T Y E K E T J [ ' _ H J L K F Y T } } I J ( Q $.! V L _ ` _ } I ] { { F -.J G J J G I H } E I G I J F G G I E ",
"+.E F F I B F F K K K Y K { } ) T ` I J L J L K F G } ` Y J _ $ l m $ F _ { _ { H  .G *.F -.F G F { G { / *.%.I J } K F T G E +.",
"+.E K G K B B H K G E Y G L { J _ ` T K K F ` F K G { | J _   k k z   F / / ` { H *.G } F | F G J / G | _ *.%.G T T L N } K E E ",
"E E Y G I F B G F I E Y G { T F T ` I E K M _ K K J T { I I   k z z z   H H { { H *./ { G | F I I H J _ _ =.{ F { ` J F I E Y } ",
"E K Y I J G H G B I E Y F %.E / J } I } T F H I G } } I _   k k z z z   ) V I } /  .J _ L Y F %.I F J L { *.} J E { L L I E I T ",
"Y F K P F I J K F G Y %.T %.E L { } K E } ( K _ I T       k k z z z z z   V J _ | | / L L { J `  .F F { { &. ._ T T L L I T E I ",
"T G K K K G Y J J F Y E +.} I L } } T %.` / E       k k k k z z z z z z z   F / / / I J F  ._ { %.H B _ { =.{ I E } L L _ Y E I ",
"J F F H E F Y F %.B Y +.+.E I P [ } } } %.'   k k k k z z z z z % z z z z z     H H { ) G _ *./ E G H J { %.V G J { I L { _ Y E ",
"Y F J G K I Y F E F E E E +.G I  .I [ *._   k k z z z z z % % % % % % z z z z z   J T / _ )  ./ { F J { T T B F F _ T I `  .F } ",
"} G L L F I J F P E P E Y } K I _ _ *.%.  k k z z % % % % % % % % % % % % % z z z   I J ` Y  ./ _ M H { } G B B F _ { %.{  .H I ",
" .G L I F T I I K T F Y T K E T I [ ' `   k z z % % % % 1.% % % % % % % % % % z z z   ' ` } | { F H H { { G K V P } | %./ _ / J ",
"_ ) } I J J E J I L L Y Y J T _ / L (   k k z % % % % 1.1.1.% % % % % % 1.% % % z z   ` { T ] { J G H _ I { L H Y } ] ` J / L / ",
"F Y } ) I H E J L G L J L I I / _ _ /   k k z % % % % 1.1.1.% % % % % 1.1.1.% % z z z   I } I { _ J _ L _ | / / G G /  ._ / L { ",
"H I I _ L L _ L { / Y _ G F } H _ L I   k z z % % % % 1.1.1.% % % % % 1.1.1.% % % z z   Y T { _ I / _ L } L _ J H J / _ ] / J { ",
"/  .J _ H I J / / L I             J I   k z z z % % % 1.1.1.% % % % % 1.1.1.% % % z z   { I { Y E L / / E ) _ | F ^ / { | _ / J ",
"H  ._ _ V ^ F L H J J   k k k k k   J I   z z z % % % % 1.% % % % % % 1.1.1.% % % z z   { _ _ } I ` _ J I _ T  .F J J { | _ J / ",
"H X.` F H V J _ H I F   k k k k k k   I }   z z z % % % % % % % % % % % 1.% % % z z z   _ / L } I  .] J J -.-. . .H ^ ]  .| / F ",
"J ..| G F H X./ J J G   k k k k k k k   I  .  z z z % % % % % % % % % % % % % % z z   _ I | / %.          ` ;._ | ^ | | ] | _ / ",
"L ^ ] H G _ ] J L T J   k k k k k k z z   ' L       z z z z z % % % % % % % z z z z   { L } _   k k k k   *.;. .| _ | -._ H | J ",
" .) ( / {  .] / J F J   k k k k z z z z   }             & & & z z z z z z z z z     _ | L {   k k k k z   { ;.-.| _ { X.] F { / ",
" .{ ^ / { *./ H J T I   k k k z z z z z     k k k k k d d d & & & & &           E F / ] I   k k k z z z   { -.-.| / _  .] H / I ",
"} { I I %.{ _ F H J G =.  k k z z z z z * k k k k k k k d d d d d d d z z       _ B / )   k k z z z z z   J X.*.X./ / ] | / L _ ",
"{ ` _ I J } I F F T J *.  k z z z z z * k k k k k k k k k k d d d k k z z z z z     J   k k z z z z z z   J I  .{ ) H _ / L _ I ",
"_  .{ L G G I F F F H *.  k z z z z * k k k k k z k k k k k k k k k z z z z z z z z     k z z z z z z z   / G ` ] ^ B ] J I / / ",
"L _  .L I F C I N B H *.  z z z z z * k k k k k z z z k k k k k z z z z z z z z z z   k z z z z z z z z   L /  ./ V V / L { / J ",
"G _  .{ T F F P B B _ =.  z = = z * k k k k k z z z z z z z z z z z z z z z z z z z * z z z z z z z z   { H I ) H V M H L ` ] I ",
"_ _ | } F K F X X X _ &.{   d = z * k k k k k z z z z z z z z z = s = s = z z z z z * z z = = = z z z   I G J ) H / V H / _ | _ ",
"H I _ _ B I X h h h . &.I   = = z * k k k k k z z z z z z z z z = s s s = z z z z z * z z = d = z z z   H I _ _ H / H G I / H  .",
"/ T Y I H X X h h h h . J /   = z * k k k k k z z z z z z z z z = ,.<.,.= z z z z z z * z = = = z z z   J _  .F L ^ G L / | F _ ",
"/ | G I + d d h h h h . J J . d = * k k k k k z z z z z z z z z = s s s = z z z z z z * z z z = z z z   _ _ { L L ^ L T _ X.H / ",
"/ _ J 3 f X X d h h X } J . d d .   k k k k z z z z z z z z z z z = s = z z z z z z z z * z z = = =   } { { L _ H H _ { I | _ ) ",
"/ { Z p O X . d . d . _ _ . h h X   k k k k z z z z z z z z z z z z = z z z z z z z z z     = d d . F %. .{ H / F X X . H { | | ",
"/ J 1 p O X d . . d . L ` . d . %.  k k k k z z z z z z z z z z z z z z z z z z z z z   Y G . d d . B %.%.K H H . h h g O /  .` ",
"T H V , F X d . . h . _ . d d . } J   k k k z z z z z z z z z z z z z z z z z z z z   F L J . h h . F _ E K G . h h h j > 6 | } ",
"} F J H F X d . . d d . . h h . { H /   k k z z z z z z z z z z z z z z z z z z z   / J G I B . d . J / _ _ K . h h h f a >.R { ",
"T F J T I E . J . d d . . d . T } G J {   : z z z z z z z z z z z z z z z z z z   G H / K K F . d . I / _ J L . d h d O 5 8 O.' ",
"F K F J } I Y F . h h . d d . } I T J   k k : * z z z z z z z z z z z z z z *   K Y J H G F F . h h . / _ J . h d X d O _ 7 o.[ ",
"F G T L %._ L B K . d . h h .  .P } }   k k z z : * * z z z z z z z z * * * z z   Y G H H F K . d d . J J . d h X T X f 4 G S ) ",
"F J L L +.{ / B F . d . d . I / I I  .  k k z z k z z * : * * * * * * z z z z z   U L H G P T . d d . L . h d . T T X f , _ A W ",
"Y Y { ) E } %.F F X d h d . L J J {   k k k z z k z z z k z z z z z z z z z z z   } G J H { E X h h . K . h X { } I X f , F D E ",
"Y Y _ L } { } J G I X h d . I L I {   k k k z z k z z z k z z z z z z z z z z =   } J T I I I X d d d . d d . E %.T X O H F K } ",
"Y Y } G =.K T I G I *.X . J G I { I   k k z z z k z z z k z z z z z z z z z z z   { T I I H L J . d h . h . T { %.K X J L K J [ ",
"Y E } K  .} } / G T &.K J %.N G / *.  k k z z z k z z z k z z z z z z z z = z = z   _ K L J I G . h d d h . Y Y %.P Y J H K E P ",
"T E E T ) *.T / J I } F G } H F _ *.  k k z z k k z z z k z z z z z z z z z z z =   L J ) I L G . d d d X G J Y } Y ` _ F G I E ",
"} Y E T H T J G J G K H J I H F { }   k k z z k k z z z k z z z z = z z z = z z z   L J ) } J T G . d . G K L { E _ L _ F F K %.",
"&.J E I G J H G K K K J F P H H _ {   k k z z k k z z z k z z z z z z z z z z z =   I J L } I E K . . N J G I ` } Y L I G G G %.",
"%./ Y J F I J J E I T J G H F H _   k k k z z k z z z z k z z z z = z z z = z z z   { F / } } Y I I K F K F _ } _ L L E Y K Y E ",
"%._ E F V F  .} I { J H H G F F  .  k k z z z k z z z z k z z z z z z z z z = z = z   G J E %.Y W T T G Y H L ` } _ L ` Y K K { ",
"%.L E V F H  .{ { I H H J G G F ;.  k k z z z k z z z k k z z z z = z z z = z z z =   J G T E E K T G T I G J I %.` K { { K T K ",
"I G E / B /  .' ' G G J H L I F   k k k z z z k z z z k k z z z z z z z z z = z z z   F F L E } G K L T K L G Y %.{ I K T L } Y ",
"G G T _ B L /  ./ J L / G F I G   k k k z z k k z z z k k z z z z = z z z z z z z = z   H G E Y Y G G T I _ F G } H I T T } } T ",
"F I [ _ ' H _  ./ G H J J G K P   k k z z z k k z z z k k z z z z z z z z z = z z z =   G J P Y Y G K T I _ G F H L G } G ` { } ",
"J L  ._ ] ^ | | ] F G L I I G   k k k z z z k k z z z k k z z z z = z z z z z = z z z =   J I I [ K L I K I J Y F Y P T L  ./ _ ",
"/ } ;. .' / { *./ F I { T I L   k k k z z z k k z z z k z z z z z z z z z z = z z z z z =   [ I  .F K { P G G } G F T I J } / / ",
"H ' -.*./ _ { =.I J E _ _ { _   k k k z z z k k z z z k z z z z z = z z z z z = z z z = z   _ I *.F I _ I F K %.E C I } T { H H ",
"^ _ *. .( I } } E T I _ L _ _   k k k z z z k z z z z k z z z z z z = z z z = z z z z z = z   T } ) } Y J B G &.I J F } G { L V ",
"V H  ._ ) { ) T T } L H F / J   k k k z z z k z z z z k z z z z z = z z z z z = z z z z z =   H T _ } } / B G %.E J H Y ` { L ^ ",
"V H I ) L { H T I T L J H / L /   k k z z z k z z z z k z z z z z z = z z z = z = z z z = z   H } _ I } } H F U %.F F J } | T G ",
"H ^ J G L _ H { I I L L G H L / {     z z z k z z z z k z z z z z = z z z z z = z = z z z   J J | _ { ` } / J T } J J F Y L I I ",
"L _ J L L / H K I J I T G G L _ ] / F o @ @ l b b b b l : m m b b b ; x b x - b - n @ @ $ H H F { )  .I I I J I %.I L G H L T } ",
"' T  .L K / H J I G I T I J H X.J / H B ` J 2 w w 0 w i y u $.u #.r @.u y w 0 e 9 w H L J ) H H { I | } _ _ L I %.H L E F K T E ",
"} T ` L { J H L K J I T T G G ;.F / / J [ _ B J %.` I I G { } { ` } ( ` %.} G K T H G L J | J ^ I _ { -.I I J T I F Y I J J Y %.",
"} E _ [ T F G H Y J T } T Y L :.J / / J J F F F ` &.J _ G { / { %.T / [  .} G K H L { H L  .J / J { { } H I I G K V P I G I K %."
};
